<?xml version='1.0' encoding='ascii'?>
<svg xmlns="http://www.w3.org/2000/svg" version="1.1" width="200" height="200">
    <g id="View Layer_LineSet" xmlns:inkscape="http://www.inkscape.org/namespaces/inkscape" inkscape:groupmode="lineset" inkscape:label="View Layer_LineSet">
        <g xmlns:inkscape="http://www.inkscape.org/namespaces/inkscape" inkscape:groupmode="layer" id="strokes" inkscape:label="strokes">
            <path fill="none" stroke-width="1.2000000476837158" stroke-linecap="butt" stroke-opacity="1.0" stroke="rgb(0, 0, 0)" stroke-linejoin="miter" d=" M 60.955, 130.986 61.015, 130.364 60.955, 129.716 60.779, 129.067 60.494, 128.441 60.405, 128.308 60.404, 128.306 60.399, 128.300 60.396, 128.295 60.388, 128.283 60.383, 128.275 60.370, 128.257 60.363, 128.246 60.348, 128.223 60.339, 128.210 60.321, 128.183 60.311, 128.168 60.291, 128.138 60.281, 128.122 60.259, 128.090 60.248, 128.073 60.226, 128.040 60.215, 128.024 60.194, 127.992 60.183, 127.976 60.163, 127.945 60.153, 127.931 60.135, 127.904 60.127, 127.891 60.111, 127.868 60.109, 127.864 60.103, 127.858 60.088, 127.842 60.082, 127.835 60.071, 127.823 60.067, 127.819 60.062, 127.814 60.061, 127.812 59.640, 127.357 59.106, 126.939 58.526, 126.628 57.922, 126.433 57.319, 126.364 56.739, 126.423 56.204, 126.607 55.736, 126.909 55.351, 127.319 55.066, 127.819 54.890, 128.391 53.792, 132.600 58.526, 133.013 59.106, 132.954 59.640, 132.770 60.109, 132.468 60.494, 132.059 60.779, 131.558 60.955, 130.986 " />
            <path fill="none" stroke-width="1.2000000476837158" stroke-linecap="butt" stroke-opacity="1.0" stroke="rgb(0, 0, 0)" stroke-linejoin="miter" d=" M 60.405, 128.308 68.578, 122.547 69.413, 121.958 " />
            <path fill="none" stroke-width="1.2000000476837158" stroke-linecap="butt" stroke-opacity="1.0" stroke="rgb(0, 0, 0)" stroke-linejoin="miter" d=" M 69.044, 121.480 60.870, 127.241 60.061, 127.812 " />
            <path fill="none" stroke-width="1.2000000476837158" stroke-linecap="butt" stroke-opacity="1.0" stroke="rgb(0, 0, 0)" stroke-linejoin="miter" d=" M 69.413, 93.321 69.413, 98.420 69.413, 108.420 69.413, 109.991 69.413, 119.991 69.413, 121.220 69.413, 121.222 69.413, 121.232 69.413, 121.239 69.413, 121.257 69.413, 121.269 69.413, 121.296 69.413, 121.311 69.413, 121.345 69.413, 121.364 69.413, 121.404 69.413, 121.425 69.413, 121.470 69.413, 121.493 69.413, 121.541 69.413, 121.561 69.413, 121.561 " />
            <path fill="none" stroke-width="1.2000000476837158" stroke-linecap="butt" stroke-opacity="1.0" stroke="rgb(0, 0, 0)" stroke-linejoin="miter" d=" M 69.413, 121.561 69.413, 121.565 69.413, 121.613 69.413, 121.637 " />
            <path fill="none" stroke-width="1.2000000476837158" stroke-linecap="butt" stroke-opacity="1.0" stroke="rgb(0, 0, 0)" stroke-linejoin="miter" d=" M 69.340, 121.545 69.391, 121.556 69.413, 121.561 69.413, 121.561 69.417, 121.562 69.470, 121.573 69.496, 121.579 69.547, 121.590 69.572, 121.595 69.621, 121.606 69.644, 121.611 69.688, 121.621 69.708, 121.625 69.745, 121.633 69.762, 121.637 69.791, 121.643 69.803, 121.646 69.823, 121.650 69.831, 121.652 69.841, 121.654 69.843, 121.655 79.613, 123.788 80.404, 123.961 90.173, 126.094 91.395, 126.361 100.000, 128.240 100.000, 128.240 102.385, 128.761 112.155, 130.894 113.376, 131.161 123.146, 133.294 124.367, 133.561 130.485, 129.249 130.587, 129.177 136.602, 124.937 142.719, 120.625 148.837, 116.313 154.491, 112.327 154.494, 112.325 154.502, 112.319 154.509, 112.314 154.525, 112.303 154.536, 112.295 154.559, 112.279 154.575, 112.268 154.604, 112.247 154.623, 112.234 154.657, 112.210 154.679, 112.195 154.717, 112.168 154.740, 112.151 154.781, 112.123 154.805, 112.105 154.847, 112.076 154.871, 112.059 154.911, 112.031 154.935, 112.014 154.954, 112.000 154.973, 111.987 154.995, 111.972 " />
            <path fill="none" stroke-width="1.2000000476837158" stroke-linecap="butt" stroke-opacity="1.0" stroke="rgb(0, 0, 0)" stroke-linejoin="miter" d=" M 174.990, 119.997 182.747, 118.188 176.282, 113.187 175.985, 113.096 175.662, 113.138 175.326, 113.312 174.990, 113.612 174.667, 114.024 174.370, 114.535 174.109, 115.124 173.895, 115.768 173.855, 115.937 173.854, 115.939 173.853, 115.947 173.851, 115.953 173.848, 115.967 173.846, 115.977 173.841, 115.997 173.838, 116.011 173.832, 116.036 173.828, 116.053 173.821, 116.083 173.816, 116.102 173.808, 116.135 173.803, 116.156 173.795, 116.192 173.790, 116.213 173.781, 116.249 173.776, 116.271 173.768, 116.306 173.763, 116.327 173.755, 116.360 173.751, 116.379 173.744, 116.409 173.740, 116.426 173.736, 116.443 173.734, 116.452 173.732, 116.466 173.729, 116.486 173.728, 116.497 173.726, 116.511 173.725, 116.517 173.724, 116.524 173.724, 116.527 173.638, 117.122 173.605, 117.781 173.638, 118.392 173.736, 118.934 173.895, 119.385 174.109, 119.727 174.370, 119.948 174.667, 120.039 174.990, 119.997 " />
            <path fill="none" stroke-width="1.2000000476837158" stroke-linecap="butt" stroke-opacity="1.0" stroke="rgb(0, 0, 0)" stroke-linejoin="miter" d=" M 102.600, 21.598 102.995, 21.374 103.271, 21.124 103.418, 20.858 103.430, 20.586 99.903, 12.886 96.387, 20.539 96.375, 20.811 96.499, 21.079 96.753, 21.332 97.129, 21.561 97.611, 21.757 98.181, 21.912 98.818, 22.020 99.496, 22.078 99.601, 22.079 99.602, 22.079 99.612, 22.079 99.615, 22.079 99.633, 22.079 99.638, 22.079 99.666, 22.079 99.672, 22.079 99.707, 22.080 99.715, 22.080 99.755, 22.080 99.765, 22.080 99.810, 22.080 99.820, 22.080 99.868, 22.081 99.878, 22.081 99.927, 22.081 99.937, 22.081 99.985, 22.081 99.995, 22.081 100.041, 22.082 100.050, 22.082 100.090, 22.082 100.098, 22.082 100.133, 22.082 100.139, 22.082 100.167, 22.083 100.172, 22.083 100.189, 22.083 100.190, 22.083 100.193, 22.082 100.203, 22.082 100.204, 22.082 100.872, 22.034 101.517, 21.934 102.101, 21.787 102.600, 21.598 " />
            <path fill="none" stroke-width="1.2000000476837158" stroke-linecap="butt" stroke-opacity="1.0" stroke="rgb(0, 0, 0)" stroke-linejoin="miter" d=" M 100.041, 42.121 100.000, 42.150 100.000, 42.150 100.000, 42.150 99.995, 42.153 99.985, 42.160 99.937, 42.194 99.927, 42.201 99.878, 42.236 99.868, 42.243 99.820, 42.277 99.810, 42.284 99.765, 42.316 99.755, 42.322 99.715, 42.351 99.707, 42.356 99.672, 42.381 99.666, 42.385 99.638, 42.405 99.633, 42.408 99.615, 42.421 99.612, 42.423 99.602, 42.430 99.601, 42.431 93.883, 46.462 87.765, 50.774 81.648, 55.086 75.530, 59.398 69.413, 63.710 69.413, 70.823 69.413, 75.280 69.413, 85.280 69.413, 86.850 69.413, 93.321 " />
            <path fill="none" stroke-width="1.2000000476837158" stroke-linecap="butt" stroke-opacity="1.0" stroke="rgb(0, 0, 0)" stroke-linejoin="miter" d=" M 154.954, 112.428 164.724, 114.561 173.724, 116.527 " />
            <path fill="none" stroke-width="1.2000000476837158" stroke-linecap="butt" stroke-opacity="1.0" stroke="rgb(0, 0, 0)" stroke-linejoin="miter" d=" M 173.855, 115.937 164.085, 113.804 155.161, 111.855 154.954, 111.810 " />
            <path fill="none" stroke-width="1.2000000476837158" stroke-linecap="butt" stroke-opacity="1.0" stroke="rgb(0, 0, 0)" stroke-linejoin="miter" d=" M 154.954, 112.077 154.954, 112.040 154.954, 112.018 154.954, 112.000 154.954, 111.983 154.954, 111.963 154.954, 111.931 154.954, 111.914 154.954, 111.887 154.954, 111.873 154.954, 111.852 154.954, 111.841 154.954, 111.826 154.954, 111.820 154.954, 111.812 154.954, 111.810 154.954, 101.810 154.954, 100.430 154.954, 90.430 154.954, 88.860 154.954, 83.761 154.954, 77.290 154.954, 67.290 154.954, 65.720 154.954, 55.720 154.954, 54.150 145.184, 52.017 143.963, 51.750 134.194, 49.617 132.973, 49.350 130.587, 48.829 121.982, 46.950 112.212, 44.816 110.991, 44.550 101.221, 42.416 100.204, 42.194 100.203, 42.194 100.193, 42.192 100.190, 42.191 100.172, 42.187 100.167, 42.186 100.139, 42.180 100.133, 42.179 100.098, 42.171 100.090, 42.169 100.050, 42.160 100.041, 42.158 100.000, 42.150 100.000, 42.150 100.000, 42.150 99.995, 42.149 99.985, 42.146 99.937, 42.136 99.927, 42.134 " />
            <path fill="none" stroke-width="1.2000000476837158" stroke-linecap="butt" stroke-opacity="1.0" stroke="rgb(0, 0, 0)" stroke-linejoin="miter" d=" M 99.601, 22.079 99.601, 32.079 99.601, 42.062 " />
            <path fill="none" stroke-width="1.2000000476837158" stroke-linecap="butt" stroke-opacity="1.0" stroke="rgb(0, 0, 0)" stroke-linejoin="miter" d=" M 100.204, 42.006 100.204, 32.006 100.204, 22.082 " />
            <path fill="none" stroke-width="1.2000000476837158" stroke-linecap="butt" stroke-opacity="1.0" stroke="rgb(0, 0, 0)" stroke-linejoin="miter" d=" M 69.413, 121.946 69.413, 121.956 69.413, 121.958 69.413, 131.958 69.413, 133.131 69.413, 143.131 69.413, 144.701 69.413, 151.171 69.413, 156.271 69.413, 166.271 69.413, 167.841 69.413, 177.841 69.413, 179.411 75.530, 175.099 81.648, 170.787 87.765, 166.475 93.883, 162.163 100.000, 157.850 100.000, 157.850 " />
            <path fill="none" stroke-width="1.2000000476837158" stroke-linecap="butt" stroke-opacity="1.0" stroke="rgb(0, 0, 0)" stroke-linejoin="miter" d=" M 45.046, 88.000 38.928, 92.312 32.811, 96.624 26.693, 100.936 20.576, 105.248 14.459, 109.560 24.228, 111.694 25.449, 111.960 35.219, 114.094 36.440, 114.360 45.046, 116.239 47.431, 116.760 57.201, 118.894 58.422, 119.160 68.192, 121.294 69.044, 121.480 69.046, 121.481 " />
            <path fill="none" stroke-width="1.2000000476837158" stroke-linecap="butt" stroke-opacity="1.0" stroke="rgb(0, 0, 0)" stroke-linejoin="miter" d=" M 69.413, 121.561 69.413, 121.561 75.530, 117.248 81.648, 112.936 87.765, 108.624 93.883, 104.312 99.726, 100.193 99.757, 100.171 100.000, 100.000 100.141, 100.031 100.204, 100.045 109.974, 102.178 110.991, 102.400 120.761, 104.534 121.982, 104.800 130.587, 106.679 132.973, 107.200 142.742, 109.334 143.963, 109.600 153.733, 111.734 154.954, 112.000 " />
            <path fill="none" stroke-width="1.2000000476837158" stroke-linecap="butt" stroke-opacity="1.0" stroke="rgb(0, 0, 0)" stroke-linejoin="miter" d=" M 100.000, 42.151 100.000, 42.152 100.000, 52.152 100.000, 53.720 100.000, 63.720 100.000, 65.290 100.000, 71.760 100.000, 76.860 100.000, 86.860 100.000, 88.430 100.000, 98.430 100.000, 100.000 99.757, 100.171 99.726, 100.193 93.883, 104.312 87.765, 108.624 81.648, 112.936 75.530, 117.248 69.413, 121.561 " />
            <path fill="none" stroke-width="1.2000000476837158" stroke-linecap="butt" stroke-opacity="1.0" stroke="rgb(0, 0, 0)" stroke-linejoin="miter" d=" M 100.000, 42.150 100.000, 52.150 100.000, 53.720 100.000, 63.720 100.000, 65.290 100.000, 71.760 100.000, 76.860 100.000, 86.860 100.000, 88.430 100.000, 98.430 100.000, 100.000 100.141, 100.031 100.204, 100.045 109.974, 102.178 110.991, 102.400 120.761, 104.534 121.982, 104.800 130.587, 106.679 132.973, 107.200 142.742, 109.334 143.963, 109.600 153.733, 111.734 154.954, 112.000 " />
            <path fill="none" stroke-width="1.2000000476837158" stroke-linecap="butt" stroke-opacity="1.0" stroke="rgb(0, 0, 0)" stroke-linejoin="miter" d=" M 100.000, 157.850 100.000, 157.850 109.770, 159.984 110.991, 160.251 120.761, 162.384 121.982, 162.651 131.751, 164.784 132.973, 165.051 142.742, 167.184 143.963, 167.451 153.733, 169.584 154.954, 169.851 154.954, 159.851 154.954, 158.281 154.954, 148.281 154.954, 146.711 154.954, 136.711 154.954, 135.141 154.954, 125.141 154.954, 123.571 154.954, 113.571 154.954, 112.428 154.954, 112.426 154.954, 112.418 154.954, 112.412 154.954, 112.397 154.954, 112.386 " />
            <path fill="none" stroke-width="1.2000000476837158" stroke-linecap="butt" stroke-opacity="1.0" stroke="rgb(0, 0, 0)" stroke-linejoin="miter" d=" M 99.633, 42.070 99.615, 42.065 99.612, 42.065 99.602, 42.063 99.601, 42.062 89.831, 39.929 89.009, 39.749 79.239, 37.616 78.018, 37.349 68.249, 35.216 67.027, 34.949 57.258, 32.816 56.037, 32.549 46.267, 30.416 45.046, 30.149 45.046, 40.149 45.046, 41.719 45.046, 51.719 45.046, 53.289 45.046, 63.289 45.046, 64.859 45.046, 74.859 45.046, 76.429 45.046, 86.429 45.046, 88.000 " />
            <path fill="none" stroke-width="1.2000000476837158" stroke-linecap="butt" stroke-opacity="1.0" stroke="rgb(0, 0, 0)" stroke-linejoin="miter" d=" M 155.161, 111.855 161.072, 107.688 167.189, 103.376 173.307, 99.064 179.424, 94.752 185.541, 90.440 175.772, 88.306 174.551, 88.040 164.781, 85.906 163.560, 85.640 154.954, 83.761 " />
            <path fill="none" stroke-width="1.2000000476837158" stroke-linecap="butt" stroke-opacity="1.0" stroke="rgb(0, 0, 0)" stroke-linejoin="miter" d=" M 130.587, 48.829 130.587, 43.729 130.587, 33.729 130.587, 32.159 130.587, 22.159 130.587, 20.589 124.470, 24.901 118.352, 29.213 112.235, 33.525 106.117, 37.837 100.204, 42.006 " />
            <path fill="none" stroke-width="1.2000000476837158" stroke-linecap="butt" stroke-opacity="1.0" stroke="rgb(0, 0, 0)" stroke-linejoin="miter" d=" M 100.000, 157.850 100.000, 157.850 100.000, 147.850 100.000, 146.280 100.000, 136.280 100.000, 134.710 100.000, 128.240 " />
            <path fill="none" stroke-width="1.2000000476837158" stroke-linecap="butt" stroke-opacity="1.0" stroke="rgb(0, 0, 0)" stroke-linejoin="miter" d=" M 100.000, 157.849 100.000, 157.848 100.000, 147.848 100.000, 146.280 100.000, 136.280 100.000, 134.710 100.000, 128.240 " />
            <path fill="none" stroke-width="1.2000000476837158" stroke-linecap="butt" stroke-opacity="1.0" stroke="rgb(0, 0, 0)" stroke-linejoin="miter" d=" M 69.413, 93.321 67.027, 92.800 57.258, 90.666 56.037, 90.400 46.267, 88.266 45.046, 88.000 " />
            <path fill="none" stroke-width="1.2000000476837158" stroke-linecap="butt" stroke-opacity="1.0" stroke="rgb(0, 0, 0)" stroke-linejoin="miter" d=" M 69.413, 93.321 67.027, 92.800 57.258, 90.666 56.037, 90.400 46.267, 88.266 45.046, 88.000 " />
            <path fill="none" stroke-width="1.2000000476837158" stroke-linecap="butt" stroke-opacity="1.0" stroke="rgb(0, 0, 0)" stroke-linejoin="miter" d=" M 45.046, 116.239 45.046, 122.710 45.046, 132.710 45.046, 134.280 45.046, 144.280 45.046, 145.850 54.816, 147.983 56.037, 148.250 65.806, 150.383 67.027, 150.650 69.413, 151.171 " />
        </g>
    </g>
</svg>
